<svg width="20" height="20" viewBox="0 0 20 20" fill="none" xmlns="http://www.w3.org/2000/svg">
<g clip-path="url(#clip0)">
<path d="M7.14976 5.17385L7.86171 6.70044H6.0043L10.3863 11.3105L9.99962 11.7144L3.73889 5.17385H7.14976Z" fill="#FAFAFA"/>
<path d="M7.55432 5.17385H16.2603L14.7985 6.70044H8.26627L7.55432 5.17385Z" fill="#FAFAFA"/>
<path d="M9.49788 12.7806V19.0544C8.22423 19.1309 7.15941 19.4983 6.6494 20H13.3492C12.8391 19.4976 11.7743 19.1309 10.5007 19.0544V12.7806L17.9455 5.00362C18.0978 4.84442 18.1405 4.61009 18.0537 4.40746C17.9675 4.20483 17.7683 4.0732 17.5478 4.0732H7.04156L6.33306 2.55488C6.86995 2.21235 7.10083 1.55485 6.84376 1.00417C6.58669 0.45212 5.9347 0.206764 5.32751 0.398362L5.19105 0.10614C5.14832 0.0137866 5.03873 -0.025498 4.94707 0.0172327C4.85541 0.0599633 4.81543 0.168857 4.85816 0.261211L4.99463 0.553433C4.45774 0.895967 4.22685 1.55347 4.48393 2.10414C4.741 2.6555 5.39299 2.90086 6.00086 2.70926L6.637 4.0732H2.45146C2.23161 4.0732 2.03243 4.20483 1.94559 4.40746C1.85944 4.61009 1.90148 4.8451 2.05448 5.00362L9.49788 12.7806ZM5.34957 1.2385C5.34957 1.38806 5.22827 1.50936 5.07871 1.50936C4.92915 1.50936 4.80785 1.38806 4.80785 1.2385C4.80785 1.08894 4.92915 0.967645 5.07871 0.967645C5.22827 0.967645 5.34957 1.08894 5.34957 1.2385ZM8.26628 6.70044L7.55433 5.17385H16.2603L14.7985 6.70113L8.26628 6.70044ZM3.7389 5.17385H7.14977L7.86171 6.70113H6.00431L10.3863 11.3112L9.99962 11.7151L3.7389 5.17385Z" fill="#FAFAFA"/>
</g>
<defs>
<clipPath id="clip0">
<rect width="20" height="20" fill="white"/>
</clipPath>
</defs>
</svg>
