<svg width="21" height="21" viewBox="0 0 21 21" fill="none" xmlns="http://www.w3.org/2000/svg">
<path d="M15.2148 18.037H0.740732C0.535917 18.037 0.370361 18.203 0.370361 18.4074C0.370361 18.6119 0.535917 18.7778 0.740732 18.7778H15.2148C15.3955 20.0322 16.4744 21 17.7778 21C19.207 21 20.3704 19.837 20.3704 18.4074C20.3704 16.9778 19.207 15.8148 17.7778 15.8148C16.4744 15.8148 15.3955 16.7826 15.2148 18.037Z" fill="white"/>
<path d="M7.66481 10.2593H0.740732C0.535917 10.2593 0.370361 10.4252 0.370361 10.6296C0.370361 10.8341 0.535917 11 0.740732 11H7.64147C7.78814 12.3341 8.92147 13.3755 10.2937 13.3755C11.6659 13.3755 12.7992 12.3341 12.9459 11L20 11C20.2048 11 20.3704 10.8341 20.3704 10.6296C20.3704 10.4252 20.2048 10.2593 20 10.2593L12.9226 10.2593C12.7089 8.99999 11.613 8.03703 10.2937 8.03703C8.97443 8.03703 7.87851 8.99999 7.66481 10.2593Z" fill="white"/>
<path d="M2.96295 0.259273C1.53369 0.259273 0.370361 1.42224 0.370361 2.85187C0.370361 4.28149 1.53369 5.44446 2.96295 5.44446C4.26629 5.44446 5.34518 4.47668 5.52592 3.22224L20 3.22224C20.2048 3.22224 20.3704 3.05631 20.3704 2.85187C20.3704 2.64742 20.2048 2.48149 20 2.48149L5.52592 2.48149C5.34518 1.22705 4.26629 0.259273 2.96295 0.259273Z" fill="white"/>
</svg>
