<svg width="44" height="44" viewBox="0 0 44 44" fill="none" xmlns="http://www.w3.org/2000/svg">
<rect x="0.5" y="0.5" width="43" height="43" rx="1.5" fill="white" stroke="#DCDCDC"/>
<path d="M28.487 10.005L25.3747 10C21.8782 10 19.6186 12.3183 19.6186 15.9064V18.6297H16.4894C16.219 18.6297 16 18.8489 16 19.1193V23.065C16 23.3354 16.2192 23.5544 16.4894 23.5544H19.6186V33.5106C19.6186 33.781 19.8376 34 20.108 34H24.1908C24.4612 34 24.6801 33.7808 24.6801 33.5106V23.5544H28.3389C28.6093 23.5544 28.8283 23.3354 28.8283 23.065L28.8298 19.1193C28.8298 18.9895 28.7781 18.8651 28.6865 18.7733C28.5949 18.6814 28.47 18.6297 28.3402 18.6297H24.6801V16.3212C24.6801 15.2116 24.9445 14.6483 26.3899 14.6483L28.4865 14.6475C28.7567 14.6475 28.9756 14.4283 28.9756 14.1582V10.4944C28.9756 10.2245 28.7569 10.0055 28.487 10.005Z" fill="#3F569A"/>
</svg>
