<svg width="24" height="24" viewBox="0 0 24 24" fill="none" xmlns="http://www.w3.org/2000/svg">
<path d="M15.5681 22.9661C15.7806 22.9805 15.9939 22.9529 16.1957 22.8849C16.3976 22.8169 16.5841 22.7098 16.7445 22.5697C16.905 22.4296 17.0363 22.2593 17.1309 22.0685C17.2256 21.8776 17.2817 21.67 17.2961 21.4575L17.3673 20.407L14.2115 18.996L14.0595 21.2383C14.031 21.6674 14.1738 22.0902 14.4566 22.4141C14.7394 22.738 15.1391 22.9365 15.5681 22.9661Z" fill="#FAFAFA"/>
<path d="M14.4298 16.5164L17.7723 18.0896L18.8544 14.2151C19.6289 10.6507 19.15 7.98736 17.5402 6.90731C16.596 6.2737 15.5741 6.4028 14.9802 6.81192C14.9735 6.81661 14.9666 6.82088 14.9595 6.82491C14.9548 6.82753 14.4217 7.13958 13.9541 7.83075C13.3307 8.75184 13.1101 9.87998 13.2979 11.1841L14.4298 16.5164Z" fill="#FAFAFA"/>
<path d="M9.77383 13.5612L6.6153 14.9664L6.68434 16.0172C6.69835 16.2297 6.75408 16.4375 6.84835 16.6285C6.94263 16.8195 7.07361 16.99 7.2338 17.1304C7.394 17.2708 7.58028 17.3783 7.78201 17.4467C7.98374 17.5151 8.19696 17.5431 8.40951 17.5291C8.62206 17.5151 8.82977 17.4593 9.02078 17.3651C9.21179 17.2708 9.38236 17.1398 9.52275 16.9796C9.66314 16.8194 9.7706 16.6331 9.839 16.4314C9.9074 16.2297 9.9354 16.0165 9.9214 15.8039L9.77383 13.5612Z" fill="#FAFAFA"/>
<path d="M6.21473 12.6482L9.56011 11.0813L10.7023 5.75086C10.8923 4.44713 10.6737 3.31861 10.0522 2.39635C9.58589 1.70429 9.0532 1.39121 9.0479 1.38816C9.04134 1.38436 9.03417 1.37982 9.02793 1.37555C8.43487 0.965394 7.41323 0.834332 6.46781 1.46616C4.85592 2.5433 4.37212 5.20575 5.13993 8.77168L6.21473 12.6482Z" fill="#FAFAFA"/>
</svg>
