<svg width="44" height="44" viewBox="0 0 44 44" fill="none" xmlns="http://www.w3.org/2000/svg">
<rect x="0.5" y="0.5" width="43" height="43" rx="1.5" fill="white" stroke="#DCDCDC"/>
<path d="M15.3189 24.5035L14.4835 27.6222L11.4301 27.6868C10.5176 25.9943 10 24.0578 10 22C10 20.0101 10.4839 18.1336 11.3418 16.4813H11.3424L14.0608 16.9797L15.2516 19.6817C15.0024 20.4084 14.8665 21.1884 14.8665 22C14.8666 22.8809 15.0262 23.7249 15.3189 24.5035Z" fill="#FBBB00"/>
<path d="M33.7903 19.7583C33.9281 20.4842 34 21.2338 34 22C34 22.8591 33.9097 23.6972 33.7376 24.5055C33.1534 27.2563 31.627 29.6583 29.5126 31.358L29.5119 31.3574L26.088 31.1827L25.6034 28.1576C27.0064 27.3348 28.1029 26.0471 28.6805 24.5055H22.2638V19.7583H28.7741H33.7903Z" fill="#518EF8"/>
<path d="M29.5119 31.3574L29.5125 31.358C27.4561 33.011 24.8437 34 22 34C17.4301 34 13.4569 31.4457 11.4301 27.6868L15.3189 24.5035C16.3323 27.2081 18.9413 29.1334 22 29.1334C23.3147 29.1334 24.5464 28.778 25.6033 28.1576L29.5119 31.3574Z" fill="#28B446"/>
<path d="M29.6596 12.7626L25.7721 15.9453C24.6783 15.2615 23.3853 14.8666 22 14.8666C18.8721 14.8666 16.2143 16.8802 15.2516 19.6818L11.3424 16.4813H11.3418C13.3389 12.6308 17.3622 10 22 10C24.9116 10 27.5813 11.0372 29.6596 12.7626Z" fill="#F14336"/>
</svg>
