<svg width="20" height="20" viewBox="0 0 20 20" fill="none" xmlns="http://www.w3.org/2000/svg">
<g clip-path="url(#clip0)">
<path d="M19.9364 8.84817C19.8939 8.74649 19.8331 8.65399 19.7556 8.57649L17.2564 6.07731C16.9306 5.75231 16.4039 5.75231 16.0781 6.07731C15.7523 6.40313 15.7523 6.93063 16.0781 7.25563L17.1556 8.33313H12.5006C12.0397 8.33313 11.6672 8.70645 11.6672 9.16645C11.6672 9.62645 12.0397 9.99977 12.5006 9.99977H17.1555L16.0781 11.0773C15.7522 11.4031 15.7522 11.9306 16.0781 12.2556C16.2405 12.4189 16.4539 12.4998 16.6672 12.4998C16.8806 12.4998 17.0939 12.4189 17.2564 12.2556L19.7556 9.75641C19.8331 9.67973 19.8939 9.58723 19.9364 9.48473C20.0205 9.28149 20.0205 9.05149 19.9364 8.84817Z" fill="#F5536B"/>
<path d="M14.1674 11.6667C13.7066 11.6667 13.3341 12.04 13.3341 12.5V16.6667H10.0007V3.33332C10.0007 2.96582 9.75905 2.64082 9.40655 2.535L6.51237 1.66668H13.3341V5.83336C13.3341 6.29336 13.7066 6.66668 14.1674 6.66668C14.6282 6.66668 15.0007 6.29336 15.0007 5.83336V0.833359C15.0007 0.37332 14.6282 0 14.1674 0H0.834053C0.804053 0 0.777373 0.0125 0.748232 0.0158203C0.709053 0.02 0.673232 0.0266406 0.635732 0.0358203C0.548232 0.0583203 0.469053 0.0925 0.394912 0.139141C0.376592 0.15082 0.354092 0.151641 0.336592 0.164961C0.329873 0.17 0.327373 0.17918 0.320693 0.18418C0.229873 0.25582 0.154053 0.34332 0.0990527 0.4475C0.087373 0.47 0.084873 0.49418 0.0757324 0.5175C0.0490527 0.58082 0.0199121 0.6425 0.00991211 0.7125C0.00573242 0.7375 0.0132324 0.76082 0.0124121 0.785C0.0115918 0.80168 0.000732422 0.81668 0.000732422 0.83332V17.5C0.000732422 17.8975 0.281553 18.2392 0.670732 18.3167L9.00405 19.9834C9.05823 19.995 9.11323 20 9.16737 20C9.35819 20 9.54569 19.9342 9.69569 19.8109C9.88819 19.6525 10.0007 19.4167 10.0007 19.1667V18.3334H14.1674C14.6282 18.3334 15.0007 17.96 15.0007 17.5V12.5C15.0007 12.04 14.6282 11.6667 14.1674 11.6667Z" fill="#F5536B"/>
</g>
<defs>
<clipPath id="clip0">
<rect width="20" height="20" fill="white"/>
</clipPath>
</defs>
</svg>
