<svg width="16" height="14" viewBox="0 0 16 14" fill="none" xmlns="http://www.w3.org/2000/svg">
<path d="M6.46485 1.98919C2.89426 1.98919 0 4.21508 0 6.96214C0 8.30882 0.697209 9.53317 1.82905 10.4283C1.76341 11.3413 1.54361 12.4583 0.907068 13.06C2.17418 13.06 3.46914 12.2663 4.28769 11.6457C4.96799 11.8327 5.70001 11.9351 6.46485 11.9351C10.0354 11.9351 12.9297 9.7102 12.9297 6.96214C12.9297 4.21508 10.0354 1.98919 6.46485 1.98919Z" fill="#737373"/>
<path d="M15.0581 7.44651C15.6022 6.71946 15.9135 5.87406 15.9135 4.97296C15.9135 2.2259 13.0192 0 9.44861 0C7.87716 0 6.43699 0.431653 5.31708 1.14776C5.84421 1.0483 6.39522 0.994592 6.96213 0.994592C10.8072 0.994592 13.9243 3.44427 13.9243 6.46485C13.9243 7.65537 13.4419 8.75838 12.6194 9.6545C13.4359 10.2751 14.7329 11.0708 16 11.0708C15.0989 10.2155 15.0342 8.31976 15.0581 7.44651Z" fill="#737373"/>
</svg>
