<svg width="20" height="20" viewBox="0 0 20 20" fill="none" xmlns="http://www.w3.org/2000/svg">
<path d="M17.4995 5.45687C17.4934 5.37547 17.4253 5.3125 17.3437 5.3125H14.5312V4.53125C14.5312 2.03266 12.4984 0 9.99998 0C7.50154 0 5.46873 2.03266 5.46873 4.53125V5.3125H2.65623C2.57467 5.3125 2.50654 5.37547 2.50045 5.45687L1.4067 19.8319C1.40342 19.8752 1.41826 19.918 1.44795 19.9498C1.47748 19.9819 1.51904 20 1.56248 20H18.4375C18.4809 20 18.5225 19.9819 18.552 19.95C18.5815 19.9181 18.5965 19.8753 18.5933 19.832L17.4995 5.45687ZM6.71873 4.53125C6.71873 2.72203 8.1906 1.25 9.99998 1.25C11.8094 1.25 13.2812 2.72203 13.2812 4.53125V5.3125H6.71873V4.53125ZM6.09373 9.6875C5.23201 9.6875 4.53123 8.98656 4.53123 8.125C4.53123 7.50141 4.84373 6.93953 5.46873 6.69297V8.125C5.46873 8.46969 5.7492 8.75 6.09373 8.75C6.43826 8.75 6.71873 8.46969 6.71873 8.125V6.69391C7.34373 6.94047 7.65623 7.50656 7.65623 8.125C7.65623 8.98656 6.95545 9.6875 6.09373 9.6875ZM13.9062 9.6875C13.0445 9.6875 12.3437 8.98656 12.3437 8.125C12.3437 7.50141 12.6562 6.93953 13.2812 6.69297V8.125C13.2812 8.46969 13.5617 8.75 13.9062 8.75C14.2508 8.75 14.5312 8.46969 14.5312 8.125V6.69391C15.1562 6.94047 15.4687 7.50656 15.4687 8.125C15.4687 8.98656 14.768 9.6875 13.9062 9.6875Z" fill="#FAFAFA"/>
</svg>
